# xmcd
#
# Track frame offsets: 
#        150
#        16178
#        41711
#        66614
#        90539
#        107149
#        131704
#        136300
#        164215
#
# Disc length: 2475 seconds
#
# Revision: 0
# Processed by: cddbd v1.5.2PL0 Copyright (c) Steve Scherf et al.
# Submitted via: ExactAudioCopy v0.99pb5
#
DISCID=8309a909
DTITLE=Steve Young - That's what I'm saying
DYEAR=2004
DGENRE=
TTITLE0=The purpose
TTITLE1=Relentless
TTITLE2=Shackleton
TTITLE3=Scuffle
TTITLE4=Something else
TTITLE5=The arrival
TTITLE6=Solo piece
TTITLE7=Foreign at home
TTITLE8=The choice
EXTD=
EXTT0=
EXTT1=
EXTT2=
EXTT3=
EXTT4=
EXTT5=
EXTT6=
EXTT7=
EXTT8=
PLAYORDER=
